# Blender 3.4.1
# www.blender.org
mtllib d4.mtl
o d4
v 0.004715 0.001925 0.002722
v 0.000000 -0.005775 -0.000000
v -0.004715 0.001925 0.002722
v -0.000000 0.001925 -0.005444
v 0.003536 -0.005775 0.002042
v -0.002357 0.003850 0.005444
v 0.003536 0.003850 -0.004764
v 0.005894 -0.001925 0.003403
v -0.005894 -0.001925 0.003403
v 0.000000 -0.001925 -0.006805
v 0.005304 -0.000962 -0.006465
v -0.002947 -0.000962 0.007826
v -0.003536 -0.005775 0.002042
v 0.002357 0.003850 0.005444
v -0.003536 0.003850 -0.004764
v -0.000000 0.007700 -0.003403
v 0.000000 -0.005775 0.006125
v 0.002947 -0.000962 0.007826
v -0.005304 -0.000962 -0.006465
v 0.005894 0.003850 -0.000681
v 0.000000 -0.005775 -0.004083
v -0.005894 0.003850 -0.000681
v -0.002947 0.007700 0.001701
v 0.005304 -0.005775 -0.003062
v -0.008251 -0.000962 -0.001361
v 0.008251 -0.000962 -0.001361
v 0.002947 0.007700 0.001701
v -0.005304 -0.005775 -0.003062
v -0.000000 0.015873 -0.000513
v -0.000444 0.015873 0.000257
v 0.000444 0.015873 0.000257
v -0.000406 0.016023 -0.000235
v -0.000000 0.016137 0.000000
v -0.000000 0.016023 0.000469
v 0.000406 0.016023 -0.000235
v -0.012812 -0.005049 -0.007910
v -0.012812 -0.005775 -0.007397
v -0.013256 -0.005049 -0.007140
v -0.012812 -0.005562 -0.007866
v -0.013176 -0.005379 -0.007607
v -0.013218 -0.005562 -0.007162
v -0.013218 -0.004899 -0.007631
v 0.000000 -0.005775 0.014794
v 0.000444 -0.005049 0.015050
v -0.000444 -0.005049 0.015050
v 0.000406 -0.005562 0.015028
v 0.000000 -0.005379 0.015214
v 0.000000 -0.004899 0.015263
v -0.000406 -0.005562 0.015028
v 0.012812 -0.005775 -0.007397
v 0.012812 -0.005049 -0.007910
v 0.013256 -0.005049 -0.007140
v 0.012812 -0.005562 -0.007866
v 0.013176 -0.005379 -0.007607
v 0.013218 -0.004899 -0.007631
v 0.013218 -0.005562 -0.007162
v -0.006406 0.005412 -0.004212
v -0.006850 0.005412 -0.003442
v -0.006812 0.005562 -0.003933
v 0.000000 -0.005775 -0.007397
v 0.000000 -0.005049 -0.007910
v 0.000000 -0.005562 -0.007866
v 0.006406 0.005412 -0.004212
v 0.006850 0.005412 -0.003442
v 0.006812 0.005562 -0.003933
v -0.006850 -0.005049 0.003955
v -0.006406 -0.005775 0.003698
v -0.006812 -0.005562 0.003933
v -0.000444 0.005412 0.007653
v 0.000444 0.005412 0.007653
v -0.000000 0.005562 0.007866
v 0.006850 -0.005049 0.003955
v 0.006406 -0.005775 0.003698
v 0.006812 -0.005562 0.003933
v -0.003003 -0.005775 0.009592
v -0.003447 -0.005049 0.009849
v -0.003354 -0.005562 0.009923
v 0.006806 -0.005049 -0.007910
v 0.006806 -0.005775 -0.007397
v 0.006916 -0.005562 -0.007866
v -0.003447 0.010969 -0.001477
v -0.003003 0.010969 -0.002247
v -0.003354 0.011209 -0.001936
v 0.009809 -0.000145 -0.006176
v 0.010253 -0.000145 -0.005407
v 0.010270 -0.000085 -0.005930
v -0.010253 -0.000145 -0.005407
v -0.009809 -0.000145 -0.006176
v -0.010270 -0.000085 -0.005930
v 0.000444 -0.000145 0.011583
v -0.000444 -0.000145 0.011583
v 0.000000 -0.000085 0.011859
v -0.006806 -0.005049 -0.007910
v -0.006806 -0.005775 -0.007397
v -0.006916 -0.005562 -0.007866
v 0.003447 0.010969 -0.001477
v 0.003003 0.010969 -0.002247
v 0.003354 0.011209 -0.001936
v 0.003003 -0.005775 0.009592
v 0.003447 -0.005049 0.009849
v 0.003354 -0.005562 0.009923
v 0.010253 -0.005049 -0.001939
v 0.009809 -0.005775 -0.002196
v 0.010270 -0.005562 -0.002057
v -0.009809 -0.005775 -0.002196
v -0.010253 -0.005049 -0.001939
v -0.010270 -0.005562 -0.002057
v -0.000444 0.010969 0.003724
v 0.000444 0.010969 0.003724
v -0.000000 0.011209 0.003873
vn -0.0000 0.3333 -0.9428
vn 0.1828 0.4253 -0.8864
vn -0.8165 0.3333 0.4714
vn -0.6762 0.4253 0.6015
vn -0.1828 0.4253 -0.8864
vn -0.0000 0.1268 -0.9919
vn -0.2948 0.1530 -0.9432
vn -0.0000 -0.9775 -0.2111
vn -0.1828 -0.9775 0.1056
vn -0.2948 -0.9403 -0.1702
vn -0.8590 0.4253 0.2849
vn -0.0000 -1.0000 -0.0000
vn 0.8165 0.3333 0.4714
vn 0.8590 0.1268 0.4960
vn 0.6762 0.4253 0.6015
vn 0.1828 -0.9775 0.1056
vn -0.8590 0.1268 0.4960
vn 0.8590 0.4253 0.2849
vn -0.6695 0.6343 0.3865
vn -0.9643 0.1530 0.2164
vn 0.6695 0.1530 0.7269
vn -0.0000 0.6343 -0.7731
vn -0.0000 1.0000 -0.0000
vn 0.5112 0.8072 -0.2952
vn -0.5112 0.8072 -0.2952
vn 0.6695 0.6343 0.3865
vn -0.0000 0.8072 0.5903
vn -0.8165 -0.3333 -0.4714
vn -0.8295 0.2875 -0.4789
vn -0.3182 -0.5473 -0.7741
vn -0.8295 -0.5473 0.1114
vn -0.0000 -0.9403 0.3403
vn -0.0000 -0.3333 0.9428
vn -0.5112 -0.5473 0.6626
vn 0.5112 -0.5473 0.6626
vn -0.6695 0.1530 0.7269
vn -0.0000 0.2875 0.9578
vn 0.2948 -0.9403 -0.1702
vn 0.8165 -0.3333 -0.4714
vn 0.8295 -0.5473 0.1114
vn 0.2947 0.1530 -0.9432
vn 0.3182 -0.5473 -0.7741
vn 0.9643 0.1530 0.2164
vn 0.8295 0.2875 -0.4789
vn -0.7071 0.5774 -0.4082
vn -0.0000 -0.5774 -0.8165
vn -0.7071 -0.5774 0.4082
vn 0.7071 -0.5773 0.4082
vn 0.7071 0.5774 -0.4082
vn -0.7071 -0.5773 0.4082
vn -0.0000 0.5774 0.8165
vn -0.0000 0.5773 0.8165
vn 0.7071 -0.5774 0.4082
vt 0.723736 0.753573
vt 0.577336 0.500000
vt 0.284535 0.500000
vt 0.723736 0.246427
vt 0.614909 0.565079
vt 0.246400 0.566575
vt 0.800459 0.246689
vt 0.685583 0.687490
vt 0.360841 0.500000
vt 0.685583 0.312510
vt 0.780500 0.345904
vt 0.342303 0.598897
vt 0.502189 0.500000
vt 0.685148 0.819886
vt 0.685148 0.180114
vt 0.781359 0.146621
vt 0.521014 0.597552
vt 0.609205 0.752993
vt 0.609205 0.247007
vt 0.800459 0.753311
vt 0.614909 0.434921
vt 0.246400 0.433425
vt 0.169289 0.500000
vt 0.689979 0.500000
vt 0.342303 0.401103
vt 0.780500 0.654096
vt 0.781359 0.853379
vt 0.521014 0.402448
vt 0.860700 0.009198
vt 0.010607 0.500000
vt 0.860700 0.990802
vt 0.005207 0.492352
vt 0.856777 0.000698
vt 0.865957 0.000093
vt 0.000093 0.500000
vt 0.865957 0.999907
vt 0.856777 0.999302
vt 0.005207 0.507648
vt 0.870024 0.008346
vt 0.870024 0.991654
vt 0.452121 0.251516
vt 0.443177 0.267629
vt 0.424750 0.267319
vt 0.447073 0.259275
vt 0.441707 0.251894
vt 0.438000 0.258663
vt 0.430284 0.258489
vt 0.433993 0.266826
vt 0.446495 0.244108
vt 0.421148 0.258742
vt 0.443177 0.732371
vt 0.452121 0.748484
vt 0.424750 0.732681
vt 0.447073 0.740725
vt 0.438000 0.741337
vt 0.441707 0.748106
vt 0.430284 0.741511
vt 0.421148 0.741258
vt 0.446495 0.755892
vt 0.433993 0.733174
vt 0.845654 0.500000
vt 0.855136 0.484197
vt 0.855136 0.515803
vt 0.850942 0.492449
vt 0.856008 0.500000
vt 0.860016 0.493405
vt 0.860016 0.506595
vt 0.864365 0.514634
vt 0.864365 0.485366
vt 0.850942 0.507551
vt 0.653490 0.126047
vt 0.215406 0.378975
vt 0.648544 0.117647
vt 0.210604 0.370492
vt 0.645423 0.382070
vt 0.654915 0.365628
vt 0.650168 0.373851
vt 0.863111 0.247073
vt 0.863111 0.752927
vt 0.872859 0.752845
vt 0.872859 0.247155
vt 0.422177 0.500000
vt 0.441162 0.500000
vt 0.431671 0.500000
vt 0.215407 0.621025
vt 0.653490 0.873953
vt 0.210604 0.629508
vt 0.648544 0.882353
vt 0.654915 0.634372
vt 0.645423 0.617930
vt 0.650168 0.626149
vt 0.441841 0.625286
vt 0.422755 0.625496
vt 0.432323 0.627431
vt 0.763309 0.428877
vt 0.753584 0.445301
vt 0.760201 0.438131
vt 0.103903 0.443365
vt 0.765005 0.061677
vt 0.762044 0.052122
vt 0.097108 0.436024
vt 0.860940 0.375557
vt 0.860940 0.624443
vt 0.870615 0.621998
vt 0.870615 0.378002
vt 0.327763 0.316613
vt 0.543304 0.192171
vt 0.536349 0.185014
vt 0.325043 0.307012
vt 0.543305 0.807829
vt 0.327763 0.683387
vt 0.325043 0.692988
vt 0.536350 0.814986
vt 0.545944 0.303381
vt 0.536582 0.320015
vt 0.539483 0.310699
vt 0.863100 0.881688
vt 0.863100 0.118312
vt 0.872855 0.883901
vt 0.872855 0.116099
vt 0.536583 0.679985
vt 0.545944 0.696619
vt 0.539483 0.689301
vt 0.763309 0.571124
vt 0.753584 0.554699
vt 0.760201 0.561869
vt 0.441841 0.374714
vt 0.422754 0.374504
vt 0.432323 0.372569
vt 0.103903 0.556635
vt 0.765005 0.938323
vt 0.097108 0.563977
vt 0.762044 0.947878
s 1
f 16/16/1 63/78/2 7/7/1
f 25/25/3 3/3/3 22/22/3
f 69/85/4 23/23/3 6/6/3
f 88/107/5 93/114/6 36/41/7
f 94/115/8 105/127/9 37/42/10
f 58/72/11 25/25/3 22/22/3
f 58/72/11 23/23/3 81/98/11
f 28/28/12 60/75/8 21/21/12
f 26/26/13 1/1/13 8/8/13
f 19/19/1 61/76/6 93/114/6
f 19/19/1 57/71/5 15/15/1
f 18/18/13 72/89/14 8/8/13
f 16/16/1 57/71/5 82/99/5
f 27/27/13 70/86/15 14/14/13
f 79/96/8 103/125/16 24/24/12
f 99/121/16 75/92/9 17/17/12
f 76/93/17 91/111/4 12/12/3
f 18/18/13 70/86/15 90/110/15
f 26/26/13 64/79/18 20/20/13
f 102/124/14 85/103/18 26/26/13
f 25/25/3 66/82/17 9/9/3
f 81/98/11 108/130/4 30/30/19
f 12/12/3 66/82/17 76/93/17
f 84/102/2 78/95/6 11/11/1
f 96/117/18 109/131/15 27/27/13
f 28/28/12 67/83/9 105/127/9
f 73/90/16 17/17/12 5/5/12
f 69/85/4 12/12/3 91/111/4
f 11/11/1 61/76/6 10/10/1
f 3/3/3 23/23/3 22/22/3
f 24/24/12 2/2/12 21/21/12
f 26/26/13 72/89/14 102/124/14
f 1/1/13 18/18/13 8/8/13
f 106/128/17 87/106/11 38/43/20
f 17/17/12 67/83/9 13/13/12
f 12/12/3 3/3/3 9/9/3
f 11/11/1 4/4/1 7/7/1
f 4/4/1 19/19/1 15/15/1
f 27/27/13 1/1/13 20/20/13
f 100/122/14 90/110/15 44/52/21
f 24/24/12 73/90/16 5/5/12
f 60/75/8 24/24/12 21/21/12
f 17/17/12 2/2/12 5/5/12
f 63/78/2 11/11/1 7/7/1
f 16/16/1 4/4/1 15/15/1
f 28/28/12 2/2/12 13/13/12
f 64/79/18 27/27/13 20/20/13
f 29/29/22 33/34/23 35/39/24
f 30/30/19 33/35/23 32/32/25
f 31/31/26 33/36/23 34/37/27
f 36/41/7 40/45/28 42/49/29
f 37/42/10 40/46/28 39/44/30
f 38/43/20 40/47/28 41/48/31
f 43/51/32 47/55/33 49/60/34
f 44/52/21 47/56/33 46/54/35
f 45/53/36 47/57/33 48/58/37
f 50/61/38 54/65/39 56/70/40
f 51/62/41 54/66/39 53/64/42
f 52/63/43 54/67/39 55/68/44
f 82/99/5 59/73/45 83/100/45
f 59/74/45 81/98/11 83/101/45
f 78/95/6 62/77/46 61/76/6
f 62/77/46 79/96/8 60/75/8
f 75/92/9 68/84/47 67/83/9
f 68/84/47 76/93/17 66/82/17
f 43/51/32 101/123/48 46/54/35
f 101/123/48 44/52/21 46/54/35
f 36/41/7 95/116/46 39/44/30
f 95/116/46 37/42/10 39/44/30
f 31/31/26 98/119/49 35/40/24
f 98/120/49 29/29/22 35/39/24
f 37/42/10 107/129/50 41/48/31
f 107/129/50 38/43/20 41/48/31
f 30/30/19 110/132/51 34/38/27
f 110/133/51 31/31/26 34/37/27
f 50/61/38 104/126/48 103/125/16
f 104/126/48 52/63/43 102/124/14
f 52/63/43 86/104/49 85/103/18
f 86/105/49 51/62/41 84/102/2
f 36/41/7 89/108/45 88/107/5
f 89/109/45 38/43/20 87/106/11
f 45/53/36 92/112/51 91/111/4
f 92/113/51 44/52/21 90/110/15
f 43/51/32 77/94/50 75/92/9
f 77/94/50 45/53/36 76/93/17
f 51/62/41 80/97/46 78/95/6
f 80/97/46 50/61/38 79/96/8
f 29/29/22 83/100/45 32/33/25
f 83/101/45 30/30/19 32/32/25
f 105/127/9 68/84/47 107/129/50
f 68/84/47 106/128/17 107/129/50
f 108/130/4 71/87/52 110/132/51
f 71/88/52 109/131/15 110/133/51
f 103/125/16 74/91/53 73/90/16
f 74/91/53 102/124/14 72/89/14
f 85/103/18 65/80/49 64/79/18
f 65/81/49 84/102/2 63/78/2
f 88/107/5 59/73/45 57/71/5
f 59/74/45 87/106/11 58/72/11
f 91/111/4 71/87/52 69/85/4
f 71/88/52 90/110/15 70/86/15
f 93/114/6 62/77/46 95/116/46
f 62/77/46 94/115/8 95/116/46
f 96/117/18 65/80/49 98/119/49
f 65/81/49 97/118/2 98/120/49
f 99/121/16 74/91/53 101/123/48
f 74/91/53 100/122/14 101/123/48
f 97/118/2 82/99/5 29/29/22
f 16/16/1 97/118/2 63/78/2
f 25/25/3 9/9/3 3/3/3
f 69/85/4 108/130/4 23/23/3
f 88/107/5 19/19/1 93/114/6
f 94/115/8 28/28/12 105/127/9
f 58/72/11 87/106/11 25/25/3
f 58/72/11 22/22/3 23/23/3
f 28/28/12 94/115/8 60/75/8
f 26/26/13 20/20/13 1/1/13
f 19/19/1 10/10/1 61/76/6
f 19/19/1 88/107/5 57/71/5
f 18/18/13 100/122/14 72/89/14
f 16/16/1 15/15/1 57/71/5
f 27/27/13 109/131/15 70/86/15
f 79/96/8 50/61/38 103/125/16
f 99/121/16 43/51/32 75/92/9
f 76/93/17 45/53/36 91/111/4
f 18/18/13 14/14/13 70/86/15
f 26/26/13 85/103/18 64/79/18
f 102/124/14 52/63/43 85/103/18
f 25/25/3 106/128/17 66/82/17
f 81/98/11 23/23/3 108/130/4
f 12/12/3 9/9/3 66/82/17
f 84/102/2 51/62/41 78/95/6
f 96/117/18 31/31/26 109/131/15
f 28/28/12 13/13/12 67/83/9
f 73/90/16 99/121/16 17/17/12
f 69/85/4 6/6/3 12/12/3
f 11/11/1 78/95/6 61/76/6
f 3/3/3 6/6/3 23/23/3
f 24/24/12 5/5/12 2/2/12
f 26/26/13 8/8/13 72/89/14
f 1/1/13 14/14/13 18/18/13
f 106/128/17 25/25/3 87/106/11
f 17/17/12 75/92/9 67/83/9
f 12/12/3 6/6/3 3/3/3
f 11/11/1 10/10/1 4/4/1
f 4/4/1 10/10/1 19/19/1
f 27/27/13 14/14/13 1/1/13
f 100/122/14 18/18/13 90/110/15
f 24/24/12 103/125/16 73/90/16
f 60/75/8 79/96/8 24/24/12
f 17/17/12 13/13/12 2/2/12
f 63/78/2 84/102/2 11/11/1
f 16/16/1 7/7/1 4/4/1
f 28/28/12 21/21/12 2/2/12
f 64/79/18 96/117/18 27/27/13
f 29/29/22 32/33/25 33/34/23
f 30/30/19 34/38/27 33/35/23
f 31/31/26 35/40/24 33/36/23
f 36/41/7 39/44/30 40/45/28
f 37/42/10 41/48/31 40/46/28
f 38/43/20 42/50/29 40/47/28
f 43/51/32 46/54/35 47/55/33
f 44/52/21 48/59/37 47/56/33
f 45/53/36 49/60/34 47/57/33
f 50/61/38 53/64/42 54/65/39
f 51/62/41 55/69/44 54/66/39
f 52/63/43 56/70/40 54/67/39
f 82/99/5 57/71/5 59/73/45
f 59/74/45 58/72/11 81/98/11
f 78/95/6 80/97/46 62/77/46
f 62/77/46 80/97/46 79/96/8
f 75/92/9 77/94/50 68/84/47
f 68/84/47 77/94/50 76/93/17
f 43/51/32 99/121/16 101/123/48
f 101/123/48 100/122/14 44/52/21
f 36/41/7 93/114/6 95/116/46
f 95/116/46 94/115/8 37/42/10
f 31/31/26 96/117/18 98/119/49
f 98/120/49 97/118/2 29/29/22
f 37/42/10 105/127/9 107/129/50
f 107/129/50 106/128/17 38/43/20
f 30/30/19 108/130/4 110/132/51
f 110/133/51 109/131/15 31/31/26
f 50/61/38 56/70/40 104/126/48
f 104/126/48 56/70/40 52/63/43
f 52/63/43 55/68/44 86/104/49
f 86/105/49 55/69/44 51/62/41
f 36/41/7 42/49/29 89/108/45
f 89/109/45 42/50/29 38/43/20
f 45/53/36 48/58/37 92/112/51
f 92/113/51 48/59/37 44/52/21
f 43/51/32 49/60/34 77/94/50
f 77/94/50 49/60/34 45/53/36
f 51/62/41 53/64/42 80/97/46
f 80/97/46 53/64/42 50/61/38
f 29/29/22 82/99/5 83/100/45
f 83/101/45 81/98/11 30/30/19
f 105/127/9 67/83/9 68/84/47
f 68/84/47 66/82/17 106/128/17
f 108/130/4 69/85/4 71/87/52
f 71/88/52 70/86/15 109/131/15
f 103/125/16 104/126/48 74/91/53
f 74/91/53 104/126/48 102/124/14
f 85/103/18 86/104/49 65/80/49
f 65/81/49 86/105/49 84/102/2
f 88/107/5 89/108/45 59/73/45
f 59/74/45 89/109/45 87/106/11
f 91/111/4 92/112/51 71/87/52
f 71/88/52 92/113/51 90/110/15
f 93/114/6 61/76/6 62/77/46
f 62/77/46 60/75/8 94/115/8
f 96/117/18 64/79/18 65/80/49
f 65/81/49 63/78/2 97/118/2
f 99/121/16 73/90/16 74/91/53
f 74/91/53 72/89/14 100/122/14
f 97/118/2 16/16/1 82/99/5
